<svg xmlns="http://www.w3.org/2000/svg" width="181" height="36" viewBox="0 0 181 36">
    <defs>
        <linearGradient id="a" x1="50%" x2="50%" y1="31.662%" y2="100%">
            <stop offset="0%" stop-color="#52D2BC"/>
            <stop offset="100%" stop-color="#00BFF2"/>
        </linearGradient>
    </defs>
    <g fill="none" fill-rule="evenodd">
        <path fill="#FFF" d="M46.894 11.023l-.001 14.87v.019a.948.948 0 0 1-1.893 0V11.023a.947.947 0 0 1 1.894 0zm134.12 14.332c0 .7-.57 1.269-1.27 1.269h-9.79c-.74-.041-1.316-.637-1.316-1.357 0-.397.203-.815.516-1.065l5.635-5.539c1.802-1.74 2.889-2.789 2.889-4.237 0-1.394-1.187-2.887-2.952-2.887-.425 0-2.564.132-2.912 2.741-.114.708-.746 1.207-1.44 1.146a1.349 1.349 0 0 1-1.226-1.46C169.636 10.3 172.505 9 174.814 9c3.79 0 5.555 3.25 5.555 5.447 0 2.129-1.102 3.574-3.135 5.497l-4.389 4.173 6.899-.031c.7 0 1.27.568 1.27 1.269zM164.85 10.532l-.001 14.88v.077a1.35 1.35 0 0 1-1.347 1.349 1.35 1.35 0 0 1-1.348-1.348V10.532a1.35 1.35 0 0 1 1.348-1.348 1.35 1.35 0 0 1 1.348 1.348zm-6.583.952l-6.616 6.615 6.456 6.457c.246.246.38.579.378.937a1.35 1.35 0 0 1-1.349 1.345c-.36 0-.698-.14-.953-.395l-6.575-6.576v5.622a1.35 1.35 0 0 1-1.348 1.349 1.35 1.35 0 0 1-1.348-1.348V10.532a1.35 1.35 0 0 1 1.348-1.348 1.35 1.35 0 0 1 1.348 1.348v5.8l6.8-6.795c.198-.204.528-.328.881-.331.387-.004.738.133.978.372a1.35 1.35 0 0 1 0 1.906zm-91.315 3.738v.707h2.249a.174.174 0 0 1 .066-.013c.48 0 .872.391.872.872 0 .48-.392.872-.872.872h-2.315v8.248a.947.947 0 0 1-1.893.004V15.048c0-4.201 3.114-5.323 4.954-5.323l.667.018a.867.867 0 0 1 .779.857.868.868 0 0 1-.873.862l-.573.004c-1.118 0-2.02.485-2.54 1.365-.251.45-.52 1.043-.52 2.391zm72.77 5.116c0 2.979-2.297 4.759-4.518 4.759-2.491 0-4.518-2.076-4.518-4.628 0-2.939 2.345-4.757 4.518-4.757 1.822 0 4.519 1.47 4.519 4.626zm1.885-10.285a.946.946 0 0 0-1.885.093v5.752l-.2-.186c-1.21-1.123-2.752-1.74-4.34-1.74-3.073 0-6.39 2.492-6.39 6.52 0 3.44 2.927 6.346 6.39 6.346 3.487 0 6.433-2.947 6.433-6.435 0-.064-.003-.128-.008-.19l-.013-.232h.02v-9.835l-.001-.093h-.006zm-49.386 4.77a.873.873 0 0 1-.872.872l-.246-.005c-1.116 0-2.018.486-2.537 1.367-.252.448-.521 1.041-.521 2.39v6.465a.947.947 0 0 1-1.893 0v-6.64c0-4.201 3.113-5.322 4.953-5.322h.244c.481 0 .872.391.872.873zM81.88 20.317c0 2.979-2.297 4.758-4.518 4.758-2.491 0-4.518-2.076-4.518-4.627 0-2.939 2.345-4.758 4.518-4.758 1.822 0 4.518 1.47 4.518 4.627zm-4.54-6.367c-3.073 0-6.39 2.493-6.39 6.52 0 3.44 2.927 6.347 6.39 6.347 3.487 0 6.434-2.947 6.434-6.434s-2.947-6.433-6.434-6.433zm-17.537 1.518c1 .975 1.53 2.472 1.53 4.326v6.118a.948.948 0 0 1-1.894 0v-6.118c0-1.349-.382-2.461-1.076-3.131-.927-.902-2.119-.973-2.462-.973-.344 0-1.537.07-2.463.972-.695.67-1.077 1.783-1.077 3.132v6.118a.947.947 0 0 1-1.893 0v-6.118c0-1.854.53-3.352 1.536-4.332 1.044-1.046 2.247-1.512 3.897-1.512 1.648 0 2.85.466 3.897 1.513l.005.005zm51.888 3.804v6.64a.947.947 0 0 1-1.894 0v-6.465c0-1.35-.27-1.944-.523-2.396-.518-.877-1.418-1.36-2.536-1.36s-2.021.487-2.543 1.372c-.25.446-.517 1.036-.517 2.384v6.465a.948.948 0 0 1-1.893 0v-6.465c0-1.348-.268-1.94-.52-2.39-.52-.88-1.422-1.367-2.54-1.367s-2.02.486-2.539 1.367c-.251.448-.52 1.041-.52 2.39v6.465a.948.948 0 0 1-1.894 0v-6.64c0-4.201 3.113-5.322 4.953-5.322.969 0 2.882.407 3.908 1.93l.099.147.099-.146c1.025-1.524 2.938-1.931 3.907-1.931 1.84 0 4.953 1.121 4.953 5.322zm4.306.12l.032-.146c.548-2.443 2.658-3.556 4.387-3.556a4.562 4.562 0 0 1 4.403 3.555l.035.147h-8.857zm9.874-2.295a6.378 6.378 0 0 0-5.487-3.147c-3.505.066-6.357 2.96-6.357 6.453 0 3.535 2.866 6.411 6.389 6.411 2.033 0 3.963-.99 5.163-2.647l.053-.076-.005-.003a.9.9 0 0 0-1.531-.935c-.046.067-.091.132-.14.197-.798 1.066-2.096 1.695-3.558 1.724-2.144 0-4.12-1.708-4.405-3.807l-.018-.134h9.889a.949.949 0 0 0 .944-.906l.002-.002v-.052c-.054-1.131-.37-2.168-.939-3.076z"/>
        <path fill="url(#a)" d="M18.958 0L2.101 16.858A7.124 7.124 0 0 0 0 21.929C0 23.845.746 25.646 2.1 27c2.797 2.796 7.347 2.796 10.142 0l7.426-7.426v5h3.08V14.21H12.42v3.116h4.93l-7.391 7.39a3.946 3.946 0 0 1-5.573 0A3.915 3.915 0 0 1 3.23 21.93c0-1.053.41-2.043 1.155-2.787L18.958 4.57 32.388 18l-13.43 13.431-3.29-3.29-2.283 2.285L18.958 36l18-18-18-18z"/>
    </g>
</svg>
